<svg width="500" height="480" viewBox="0 0 500 480" fill="none" xmlns="http://www.w3.org/2000/svg">
<rect x="330" y="310" width="170" height="170" rx="2" fill="orange"/> 
<rect x="362" y="365.831" width="80.7651" height="80.7651" rx="2" transform="rotate(-13.9128 362 365.831)" fill="#234233"/>
<path d="M412.572 402.039C411.235 402.37 409.822 402.156 408.643 401.445C407.464 400.734 406.615 399.584 406.284 398.247C405.818 396.366 406.435 394.466 407.718 393.239L421.691 379.757L416.388 398.152C415.956 400.006 414.538 401.552 412.572 402.039ZM407.162 380.2C410.203 379.447 413.25 379.584 416.061 380.349L413.037 383.256C411.434 383.047 409.675 383.144 407.995 383.56C404.43 384.443 401.363 386.705 399.467 389.85C397.571 392.995 397.002 396.764 397.884 400.328C398.804 404.041 401.131 407.03 404.167 408.846L404.183 408.842C405.001 409.335 405.263 410.393 404.77 411.21C404.277 412.028 403.202 412.294 402.389 411.818C398.595 409.531 395.673 405.797 394.525 401.16C393.421 396.705 394.132 391.994 396.502 388.063C398.873 384.132 402.707 381.304 407.162 380.2ZM428.123 392.838C429.271 397.474 428.43 402.14 426.143 405.934C425.646 406.735 424.587 406.997 423.77 406.504C422.952 406.011 422.69 404.953 423.183 404.135C425.016 401.096 425.683 397.383 424.763 393.67C424.347 391.99 423.612 390.389 422.649 389.023L423.808 384.992C425.826 387.166 427.365 389.78 428.123 392.838Z" fill="orange"/>
<rect width="300" height="480" rx="2" fill="orange"/>
<rect x="35" y="35" width="230" height="134" rx="2" fill="#DAE2F0" fill-opacity="0.66"/>
<rect opacity="0.53" x="35" y="194" width="230" height="27" rx="2" fill="#DAE2F0"/>
<rect x="35" y="246" width="137" height="199" fill="url(#paint0_linear_1028_1032)"/>
<rect opacity="0.57" x="187" y="246" width="78" height="64" rx="2" fill="#DAE2F0"/>
<rect opacity="0.6" x="187" y="322" width="78" height="55" rx="2" fill="#DAE2F0"/>
<rect opacity="0.5" x="187" y="389" width="78" height="56" rx="2" fill="#DAE2F0"/>
<path d="M377.795 371.295C358.482 349.772 331.574 292.451 378.448 235.356" stroke="url(#paint1_linear_1028_1032)" stroke-linecap="round" stroke-linejoin="round" stroke-dasharray="2 2"/>
<path d="M375.753 233.513L380.883 233V237.617" stroke="url(#paint2_linear_1028_1032)" stroke-linecap="round" stroke-linejoin="round" stroke-dasharray="2 2"/>
<rect x="330" width="170" height="280" rx="2" fill="orange"/>
<rect x="384" y="213" width="69" height="19.5283" rx="9.76415" fill="#5b7367"/>
<path d="M399.37 219.51V223.177C399.37 223.948 398.838 224.503 397.972 224.503C397.109 224.503 396.574 223.948 396.574 223.177V219.51H395.717V223.246C395.717 224.439 396.61 225.285 397.972 225.285C399.334 225.285 400.23 224.439 400.23 223.246V219.51H399.37Z" fill="orange"/>
<path d="M401.41 226.788H402.239V224.528H402.289C402.439 224.8 402.744 225.274 403.521 225.274C404.553 225.274 405.302 224.447 405.302 223.069C405.302 221.687 404.541 220.875 403.512 220.875C402.722 220.875 402.436 221.357 402.289 221.621H402.22V220.93H401.41V226.788ZM402.222 223.06C402.222 222.17 402.611 221.579 403.335 221.579C404.087 221.579 404.464 222.214 404.464 223.06C404.464 223.915 404.075 224.567 403.335 224.567C402.622 224.567 402.222 223.956 402.222 223.06Z" fill="orange"/>
<path d="M407.826 225.274C408.602 225.274 408.908 224.8 409.057 224.528H409.127V225.191H409.937V219.51H409.107V221.621H409.057C408.908 221.357 408.625 220.875 407.831 220.875C406.802 220.875 406.045 221.687 406.045 223.069C406.045 224.447 406.791 225.274 407.826 225.274ZM408.009 224.567C407.268 224.567 406.883 223.915 406.883 223.06C406.883 222.214 407.26 221.579 408.009 221.579C408.733 221.579 409.121 222.17 409.121 223.06C409.121 223.956 408.725 224.567 408.009 224.567Z" fill="orange"/>
<path d="M412.36 225.285C413.065 225.285 413.462 224.927 413.62 224.608H413.653V225.191H414.463V222.361C414.463 221.121 413.487 220.875 412.81 220.875C412.039 220.875 411.329 221.185 411.051 221.962L411.831 222.139C411.953 221.837 412.263 221.546 412.821 221.546C413.356 221.546 413.631 221.826 413.631 222.309V222.328C413.631 222.63 413.32 222.625 412.555 222.714C411.747 222.808 410.921 223.019 410.921 223.987C410.921 224.825 411.55 225.285 412.36 225.285ZM412.541 224.619C412.072 224.619 411.734 224.408 411.734 223.998C411.734 223.554 412.127 223.396 412.607 223.332C412.876 223.296 413.124 223.506 413.124 223.821C413.124 224.232 412.795 224.408 412.541 224.619Z" fill="orange"/>
</svg>
